<?xml version="1.0" encoding="UTF-8"?><svg id="Layer_1" xmlns="http://www.w3.org/2000/svg" viewBox="0 0 572.37 175.57"><path d="M266.85,16.41l-30.52,68.55h-13.48l-29.93-68.55h21.24l15.48,39.06,15.92-39.06h21.29Z" fill="#0a2342"/><path d="M351.07,84.08h-51.03V16.41h50.2v13.57h-29.79v12.4h28.42v13.62h-28.42v14.45h30.62v13.62Z" fill="#0a2342"/><path d="M455.47,84.08h-21.92l-5.32-12.01c-1.95-4.39-3.71-7.61-5.27-9.64-1.56-2.04-3.08-3.34-4.57-3.91-1.48-.57-3.39-.86-5.74-.86h-2.29v26.42h-20.41V16.41h34.72c5.6,0,10.19,1.14,13.77,3.42,3.58,2.28,6.16,5.05,7.74,8.3,1.58,3.26,2.37,6.35,2.37,9.28,0,3.42-.66,6.31-1.98,8.67-1.32,2.36-2.71,4.08-4.17,5.15s-3.11,2.1-4.93,3.08c2.18,1.27,3.98,2.78,5.4,4.52,1.42,1.74,3.34,5.27,5.79,10.57l6.84,14.7ZM427.73,37.79c0-3.12-1.03-5.3-3.08-6.54-2.05-1.24-5.39-1.86-10.01-1.86h-4.3v16.31h4.39c4.98,0,8.39-.54,10.23-1.63,1.84-1.09,2.76-3.18,2.76-6.28Z" fill="#0a2342"/><path d="M567.37,84.08h-20.9l-5.52-13.72h-29.39l-5.62,13.72h-20.9l29.93-67.68h22.56l29.83,67.68ZM536.27,58.59l-9.91-24.71-10.01,24.71h19.92Z" fill="#0a2342"/><path d="M226.12,150.08h-31.88v-41.96h12.65v31.91h19.22v10.05Z" fill="#0a2342"/><path d="M267.04,150.08h-31.64v-41.96h31.12v8.42h-18.47v7.69h17.62v8.45h-17.62v8.96h18.98v8.45Z" fill="#0a2342"/><path d="M325.59,150.08h-12.96l-3.42-8.51h-18.22l-3.48,8.51h-12.96l18.56-41.96h13.99l18.5,41.96ZM306.31,134.28l-6.15-15.32-6.21,15.32h12.35Z" fill="#0a2342"/><path d="M374.69,150.08h-13.59l-3.3-7.45c-1.21-2.72-2.3-4.72-3.27-5.98s-1.91-2.07-2.83-2.42c-.92-.35-2.1-.53-3.56-.53h-1.42v16.38h-12.65v-41.96h21.52c3.47,0,6.32.71,8.54,2.12,2.22,1.41,3.82,3.13,4.8,5.15.98,2.02,1.47,3.94,1.47,5.75,0,2.12-.41,3.91-1.23,5.37-.82,1.46-1.68,2.53-2.59,3.19s-1.93,1.3-3.06,1.91c1.35.79,2.47,1.72,3.34,2.8.88,1.08,2.07,3.26,3.59,6.55l4.24,9.11ZM357.49,121.38c0-1.94-.64-3.29-1.91-4.06-1.27-.77-3.34-1.15-6.21-1.15h-2.66v10.11h2.72c3.09,0,5.2-.34,6.34-1.01,1.14-.68,1.71-1.97,1.71-3.89Z" fill="#0a2342"/><path d="M428.99,150.08h-11.26l-21.77-23.37v23.37h-12.53v-41.96h11.23l21.71,23.25v-23.25h12.62v41.96Z" fill="#0a2342"/><path d="M455.2,150.08h-12.65v-41.96h12.65v41.96Z" fill="#0a2342"/><path d="M514.33,150.08h-11.26l-21.77-23.37v23.37h-12.53v-41.96h11.23l21.71,23.25v-23.25h12.62v41.96Z" fill="#0a2342"/><path d="M567.68,147.12c-.91.34-1.69.63-2.33.85-.65.22-1.27.42-1.86.61-.6.18-1.46.41-2.59.7-1.92.44-3.83.78-5.74,1.01-1.91.23-3.92.35-6.04.35-4.26,0-8.19-.78-11.81-2.33-3.61-1.55-6.5-3.97-8.67-7.24-2.17-3.27-3.25-7.29-3.25-12.05,0-3.07.56-6.08,1.68-9.04,1.12-2.96,2.83-5.32,5.13-7.1,1.9-1.47,3.82-2.6,5.77-3.38,1.95-.78,3.85-1.3,5.71-1.56,1.86-.26,3.91-.39,6.15-.39,3.69,0,6.74.28,9.14.83,2.4.55,5.04,1.29,7.9,2.2v9.93c-1.9-1.11-3.91-2.04-6.02-2.79-2.12-.75-4.76-1.12-7.93-1.12-3.65,0-6.57.69-8.76,2.07-2.19,1.38-3.71,3.03-4.57,4.95-.86,1.92-1.29,3.78-1.29,5.57,0,2.12.49,4.07,1.48,5.86.99,1.79,2.48,3.22,4.48,4.3,2,1.08,4.41,1.62,7.24,1.62,1.61,0,3.33-.21,5.15-.64v-4.93h-5.69v-8.45h16.74v20.16Z" fill="#0a2342"/><polygon points="85.38 122.97 92.02 110.29 91.97 110.19 141.04 16.37 99.08 16.37 70.91 70.21 49.71 110.75 60.7 131.61 66.68 142.97 70.76 150.72 85.24 123.05 85.38 122.97" fill="#0f5f67"/><polygon points="42.55 16.37 0 16.37 46.59 104.82 67.79 64.29 42.55 16.37" fill="#0f5f67"/><polygon points="153.19 113 96.71 113 76.98 150.71 173.05 150.71 153.19 113" fill="#0f5f67"/></svg>